<svg width="109" height="56" viewBox="0 0 109 56" fill="none" xmlns="http://www.w3.org/2000/svg">
<path fill-rule="evenodd" clip-rule="evenodd" d="M107.537 27.8055C108.423 26.1433 108.277 24.4539 107.439 22.8532C107.439 22.8532 106.365 21.2211 104.592 19.7474C103.115 18.5684 102.755 18.2594 102.755 18.2594C99.8454 16.4642 96.1144 15.1672 92.4511 14.7986C88.4768 14.3993 75.2562 14.7918 61.3496 15.3447L61.3238 15.3171L44.6204 16.0603L44.6211 16.0614C42.9491 16.1363 41.3224 16.2097 39.7592 16.2801C31.205 16.6658 24.5486 16.9659 22.7456 16.9659C19.618 16.9659 17.7936 13.3928 16.1207 10.1165C14.7044 7.3427 13.3967 4.78157 11.4986 4.78157H1.7285C-0.0930524 4.78157 -0.535763 6.73379 0.69099 9.60751C3.8373 16.9522 7.44998 25.5461 8.0887 27.8055C8.97413 30.942 13.4148 35.4232 23.1849 35.4232H40.4981H43.6849L38.3251 54.273C38.0547 55.2184 38.636 56 39.6127 56H47.862C48.8387 56 50.079 55.3242 50.6129 54.5017L63.0427 35.4232H79.5651C89.3318 35.4232 104.428 33.6314 107.537 27.8055ZM43.4725 14.0452L43.3793 13.8378L59.0815 12.9172L48.2337 1.30717C47.568 0.587032 46.2128 0 45.2429 0H37.2504C36.2737 0 35.8682 0.69966 36.3582 1.55632L43.4725 14.0452ZM35.8817 22.3276L36.0135 25.9864C36.0338 26.5939 35.564 27.1024 34.9625 27.1263L31.3396 27.2594C30.7381 27.2764 30.2312 26.8055 30.2109 26.198L30.0791 22.5392C30.0622 21.9317 30.5286 21.4266 31.1301 21.3993L34.7529 21.2662C35.3545 21.2491 35.8546 21.7201 35.8817 22.3276ZM46.5102 21.942L46.642 25.6007C46.6623 26.2082 46.1925 26.7133 45.591 26.7372L41.9682 26.8703C41.3734 26.8874 40.8664 26.4164 40.8462 25.8123L40.7144 22.1502C40.6975 21.5427 41.1638 21.0375 41.7654 21.0137L45.3882 20.8805C45.983 20.8635 46.4899 21.3311 46.5102 21.942ZM57.1421 21.5529L57.2739 25.2116C57.2942 25.8123 56.8244 26.3276 56.2229 26.3481L52.6001 26.4812C51.9985 26.4983 51.4983 26.0273 51.4713 25.4198L51.3395 21.7611C51.3226 21.1536 51.789 20.6485 52.3905 20.628L56.0133 20.4949C56.6149 20.4744 57.1218 20.942 57.1421 21.5529ZM67.7706 21.1604L67.9024 24.8191C67.9294 25.4266 67.4529 25.9352 66.8581 25.959L63.2353 26.0921C62.6338 26.1092 62.1269 25.6382 62.1066 25.0307L61.9748 21.372C61.9579 20.7645 62.4243 20.256 63.019 20.2321L66.6486 20.099C67.2502 20.0819 67.7503 20.5529 67.7706 21.1604Z" fill="black"/>
</svg>
