<svg width="80" height="90" viewBox="0 0 80 90" fill="none" xmlns="http://www.w3.org/2000/svg">
<path d="M42.2972 83.1421L75.195 66.6932V24.9507L42.2972 41.3997V83.1421ZM37.5975 83.1421V41.3997L20.119 32.6604C20.1036 32.6529 20.0884 32.6453 20.0733 32.6375L4.69969 24.9507V66.6932L37.5975 83.1421ZM7.60426 21.1486L21.1486 27.9208L53.4917 11.7492L39.9474 4.97705L7.60426 21.1486ZM58.7461 14.3764L26.403 30.548L39.9474 37.3202L72.2905 21.1486L58.7461 14.3764ZM40.9983 89.046C40.3367 89.3768 39.558 89.3768 38.8965 89.046L1.29896 70.2473C0.502872 69.8492 0 69.0356 0 68.1455V21.1486C0 20.2586 0.502872 19.4449 1.29896 19.0468L38.8965 0.24808C39.558 -0.0826932 40.3367 -0.0826932 40.9983 0.24808L78.5958 19.0468C79.3919 19.4449 79.8947 20.2586 79.8947 21.1486V68.1455C79.8947 69.0356 79.3919 69.8492 78.5958 70.2473L40.9983 89.046Z" fill="#333333"/>
<rect x="43.9561" y="47.2573" width="18" height="2.62185" rx="1.31093" transform="rotate(-26.9402 43.9561 47.2573)" fill="#EC1944"/>
<rect x="44" y="52.155" width="18" height="2.62185" rx="1.31093" transform="rotate(-26.9402 44 52.155)" fill="#EC1944"/>
</svg>
