<svg width="98" height="120" viewBox="0 0 98 120" fill="none" xmlns="http://www.w3.org/2000/svg">
<path fill-rule="evenodd" clip-rule="evenodd" d="M20.2774 77.0019C20.1959 77.0155 20.1158 77.0383 20.0395 77.0699L3.1452 83.6474C2.5608 83.875 2.28429 84.67 2.60133 85.2111L5.88158 90.7349L0.340857 95.5108C-0.225489 95.991 -0.0566719 97.0635 0.629753 97.3464L6.20452 99.6579V111.062C6.23226 111.749 6.51595 112.065 7.07137 112.303L25.8012 119.56C26.0714 119.669 26.3854 119.663 26.651 119.544L42.6785 112.252C43.2513 111.938 43.352 111.703 43.4093 111.062V100.1L46.3326 98.5193C46.828 98.2491 47.037 97.5569 46.7746 97.0576L43.6642 91.1599L47.7264 86.9618C48.2335 86.4438 48.0002 85.4233 47.3185 85.1772L29.6254 78.8206C29.5211 78.7875 29.4115 78.7703 29.3024 78.7697C29.0484 78.7568 28.7909 78.8366 28.5886 78.9906L24.1865 82.4238L21.3821 77.5289C21.1784 77.1882 20.7757 76.9767 20.3794 77.002C20.3457 77.0004 20.3114 77.0004 20.2774 77.002V77.0019ZM19.9545 79.4324L22.317 83.5285L7.7512 89.5961L5.13373 85.2111L19.9545 79.4324ZM29.4554 81.081L44.9899 86.6558L42.0326 89.6981L26.0561 83.7154L29.4554 81.081ZM7.47927 92.2305L24.0166 98.6212L18.8837 102.598L3.09419 96.0207L7.47927 92.2305ZM41.8287 92.3835L44.3441 97.1255L31.036 104.332L27.7558 98.7911L41.8287 92.3835ZM25.1213 100.525V116.96L8.38004 110.467V100.576L18.6458 104.842C18.9936 104.986 19.4158 104.932 19.7166 104.706L25.1213 100.525ZM41.2337 101.29V110.518L27.2968 116.858V102.309L29.6933 106.337C29.9748 106.821 30.6637 107.014 31.155 106.745L41.2337 101.29Z" fill="#333333"/>
<path fill-rule="evenodd" clip-rule="evenodd" d="M70.2774 77.0019C70.1959 77.0155 70.1158 77.0383 70.0395 77.0699L53.1452 83.6474C52.5608 83.875 52.2843 84.67 52.6013 85.2111L55.8816 90.7349L50.3409 95.5108C49.7745 95.991 49.9433 97.0635 50.6298 97.3464L56.2045 99.6579V111.062C56.2323 111.749 56.5159 112.065 57.0714 112.303L75.8012 119.56C76.0714 119.669 76.3854 119.663 76.651 119.544L92.6785 112.252C93.2513 111.938 93.352 111.703 93.4093 111.062V100.1L96.3326 98.5193C96.828 98.2491 97.037 97.5569 96.7746 97.0576L93.6642 91.1599L97.7264 86.9618C98.2335 86.4438 98.0002 85.4233 97.3185 85.1772L79.6254 78.8206C79.5211 78.7875 79.4115 78.7703 79.3024 78.7697C79.0484 78.7568 78.7909 78.8366 78.5886 78.9906L74.1865 82.4238L71.3821 77.5289C71.1784 77.1882 70.7757 76.9767 70.3794 77.002C70.3457 77.0004 70.3114 77.0004 70.2774 77.002V77.0019ZM69.9545 79.4324L72.317 83.5285L57.7512 89.5961L55.1337 85.2111L69.9545 79.4324ZM79.4554 81.081L94.9899 86.6558L92.0326 89.6981L76.0561 83.7154L79.4554 81.081ZM57.4793 92.2305L74.0166 98.6212L68.8837 102.598L53.0942 96.0207L57.4793 92.2305ZM91.8287 92.3835L94.3441 97.1255L81.036 104.332L77.7558 98.7911L91.8287 92.3835ZM75.1213 100.525V116.96L58.38 110.467V100.576L68.6458 104.842C68.9936 104.986 69.4158 104.932 69.7166 104.706L75.1213 100.525ZM91.2337 101.29V110.518L77.2968 116.858V102.309L79.6933 106.337C79.9748 106.821 80.6637 107.014 81.155 106.745L91.2337 101.29Z" fill="#333333"/>
<line y1="-0.25" x2="24.1868" y2="-0.25" transform="matrix(-0.496139 0.868243 -0.98995 -0.141421 38 53)" stroke="#EC1944" stroke-width="0.5"/>
<line y1="-0.25" x2="28.3196" y2="-0.25" transform="matrix(-0.670913 -0.741536 0.975361 -0.220617 74 74)" stroke="#EC1944" stroke-width="0.5"/>
<mask id="mask0" mask-type="alpha" maskUnits="userSpaceOnUse" x="15" y="84" width="17" height="17">
<circle cx="23.5" cy="92.5" r="8.5" transform="rotate(180 23.5 92.5)" fill="#EC1944"/>
</mask>
<g mask="url(#mask0)">
<rect x="38" y="93" width="31" height="11" transform="rotate(180 38 93)" fill="#EC1944"/>
</g>
<mask id="mask1" mask-type="alpha" maskUnits="userSpaceOnUse" x="65" y="84" width="17" height="17">
<circle cx="73.5" cy="92.5" r="8.5" transform="rotate(180 73.5 92.5)" fill="#EC1944"/>
</mask>
<g mask="url(#mask1)">
<rect x="88" y="93" width="31" height="11" transform="rotate(180 88 93)" fill="#EC1944"/>
</g>
<mask id="mask2" mask-type="alpha" maskUnits="userSpaceOnUse" x="18" y="0" width="54" height="54">
<circle cx="44.6005" cy="26.6004" r="24.507" transform="rotate(5.13078 44.6005 26.6004)" fill="#EC1944"/>
</mask>
<g mask="url(#mask2)">
<rect x="16.2402" y="-10.9116" width="31.6011" height="67.0718" transform="rotate(5.13078 16.2402 -10.9116)" fill="#EC1944"/>
</g>
<mask id="mask3" mask-type="alpha" maskUnits="userSpaceOnUse" x="21" y="0" width="53" height="53">
<circle cx="47.1803" cy="26.6004" r="24.507" transform="rotate(-176.842 47.1803 26.6004)" fill="#EC1944"/>
</mask>
<g mask="url(#mask3)">
<rect x="76.8149" y="63.1138" width="31.6011" height="67.0718" transform="rotate(-176.842 76.8149 63.1138)" fill="#EC1944"/>
</g>
</svg>
