<svg width="93" height="116" viewBox="0 0 93 116" fill="none" xmlns="http://www.w3.org/2000/svg">
<path fill-rule="evenodd" clip-rule="evenodd" d="M41.2829 37.2374C41.133 37.2622 40.9858 37.3042 40.8454 37.3621L9.7829 49.4265C8.70839 49.8438 8.2 51.302 8.78291 52.2945L14.8141 62.426L4.62671 71.186C3.58541 72.0666 3.8958 74.0338 5.15789 74.5528L15.4079 78.7924V99.7102C15.4589 100.971 15.9805 101.55 17.0017 101.986L51.4391 115.297C51.9359 115.496 52.5133 115.484 53.0017 115.266L82.4704 101.893C83.5237 101.316 83.7088 100.886 83.8141 99.7104V79.6031L89.1891 76.704C90.1 76.2085 90.4842 74.9388 90.0017 74.023L84.2829 63.2056L91.7517 55.5056C92.6842 54.5555 92.2552 52.6837 91.0017 52.2323L58.4704 40.5732C58.2787 40.5125 58.0772 40.4808 57.8767 40.4797C57.4097 40.4562 56.9362 40.6025 56.5641 40.885L48.4704 47.1822L43.3141 38.204C42.9395 37.5791 42.1991 37.1912 41.4704 37.2376C41.4084 37.2347 41.3454 37.2347 41.2829 37.2376V37.2374ZM40.6891 41.6953L45.0329 49.2082L18.2517 60.3374L13.4391 52.2945L40.6891 41.6953ZM58.1579 44.7192L86.7204 54.9443L81.2829 60.5244L51.9079 49.5512L58.1579 44.7192ZM17.7517 65.1694L48.1579 76.8909L38.7204 84.1856L9.68911 72.1212L17.7517 65.1694ZM80.9079 65.4499L85.5329 74.1476L61.0641 87.3652L55.0329 77.2026L80.9079 65.4499ZM50.1891 80.3824V110.528L19.4079 98.6191V80.4758L38.2829 88.3005C38.9224 88.5648 39.6986 88.4665 40.2517 88.0511L50.1891 80.3824ZM79.8141 81.7851V98.7126L54.1891 110.341V83.6556L58.5954 91.0438C59.1129 91.9313 60.3795 92.284 61.2829 91.792L79.8141 81.7851Z" fill="#333333"/>
<circle cx="85" cy="43" r="7" fill="#EC1944"/>
<circle cx="50.5" cy="8.5" r="8.5" fill="#EC1944"/>
<circle cx="71.5" cy="23.5" r="3.5" fill="#EC1944"/>
<circle cx="33" cy="34" r="2" fill="#EC1944"/>
<circle cx="8.5" cy="41.5" r="8.5" fill="#EC1944"/>
<line x1="50.25" y1="21" x2="50.25" y2="79" stroke="#EC1944" stroke-width="0.5"/>
<line x1="70.2337" y1="29.0888" x2="51.2337" y2="79.0888" stroke="#EC1944" stroke-width="0.5"/>
<line x1="34.2354" y1="36.9159" x2="49.2354" y2="78.9159" stroke="#EC1944" stroke-width="0.5"/>
<line x1="80.1828" y1="49.1706" x2="52.1828" y2="79.1706" stroke="#EC1944" stroke-width="0.5"/>
<line x1="17.1607" y1="52.8085" x2="48.1606" y2="78.8084" stroke="#EC1944" stroke-width="0.5"/>
</svg>
